<svg width="21" height="21" viewBox="0 0 21 21" fill="none" xmlns="http://www.w3.org/2000/svg">
<path d="M5.49038 0H4.963C4.89571 0 4.83189 0.01414 4.77007 0.0342318C4.46116 0.134416 4.23282 0.46421 4.23282 0.859819V1.22285V2.15206V2.6355C4.23282 2.72533 4.24778 2.8102 4.26949 2.89147C4.36245 3.24053 4.636 3.49532 4.963 3.49532H5.49038C5.89373 3.49532 6.22057 3.11041 6.22057 2.6355V2.15206V1.22285V0.859819C6.22057 0.38491 5.89373 0 5.49038 0Z" fill="#F8F8F8"/>
<path d="M15.8707 0H15.3433C14.94 0 14.6132 0.38491 14.6132 0.859819V1.22285V2.15206V2.6355C14.6132 3.11041 14.94 3.49532 15.3433 3.49532H15.8707C16.2741 3.49532 16.6009 3.11041 16.6009 2.6355V2.15206V1.22285V0.859819C16.6007 0.38491 16.2739 0 15.8707 0Z" fill="#F8F8F8"/>
<path d="M18.5645 2.1521H17.2587V2.63554C17.2587 3.47248 16.6359 4.15333 15.8705 4.15333H15.3432C14.5778 4.15333 13.955 3.47248 13.955 2.63554V2.1521H6.87854V2.63554C6.87854 3.47248 6.25576 4.15333 5.49038 4.15333H4.963C4.19759 4.15333 3.57484 3.47248 3.57484 2.63554V2.1521H2.43708C1.71233 2.1521 1.12457 2.70315 1.12457 3.38252V19.7697C1.12457 20.4503 1.71229 21.0001 2.43708 21.0001H18.5643C19.2897 21.0001 19.8768 20.4502 19.8768 19.7697V3.38269C19.8769 2.70332 19.2899 2.1521 18.5645 2.1521ZM18.1575 19.1939L2.79615 19.188V5.97656H18.1575V19.1939Z" fill="#F8F8F8"/>
<path d="M12.1458 9.16023H16.1858C16.5364 9.16023 16.8201 8.81003 16.8201 8.37723C16.8201 7.94443 16.5363 7.59424 16.1858 7.59424H12.1458C11.7951 7.59424 11.5115 7.94443 11.5115 8.37723C11.5115 8.80986 11.7951 9.16023 12.1458 9.16023Z" fill="#F8F8F8"/>
<path d="M12.1458 11.9886H16.1858C16.5364 11.9886 16.8201 11.6384 16.8201 11.2056C16.8201 10.7728 16.5363 10.4226 16.1858 10.4226H12.1458C11.7951 10.4226 11.5115 10.7728 11.5115 11.2056C11.5115 11.6384 11.7951 11.9886 12.1458 11.9886Z" fill="#F8F8F8"/>
<path d="M12.1458 14.8168H16.1858C16.5364 14.8168 16.8201 14.4666 16.8201 14.0339C16.8201 13.6011 16.5363 13.2509 16.1858 13.2509H12.1458C11.7951 13.2509 11.5115 13.6011 11.5115 14.0339C11.5115 14.4666 11.7951 14.8168 12.1458 14.8168Z" fill="#F8F8F8"/>
<path d="M12.1458 17.6453H16.1858C16.5364 17.6453 16.8201 17.2951 16.8201 16.8623C16.8201 16.4295 16.5363 16.0793 16.1858 16.0793H12.1458C11.7951 16.0793 11.5115 16.4295 11.5115 16.8623C11.5115 17.2951 11.7951 17.6453 12.1458 17.6453Z" fill="#F8F8F8"/>
<path d="M4.99032 9.16023H9.03029C9.38096 9.16023 9.66456 8.81003 9.66456 8.37723C9.66456 7.94443 9.38079 7.59424 9.03029 7.59424H4.99032C4.63961 7.59424 4.35602 7.94443 4.35602 8.37723C4.35605 8.80986 4.63961 9.16023 4.99032 9.16023Z" fill="#F8F8F8"/>
<path d="M4.99032 11.9886H9.03029C9.38096 11.9886 9.66456 11.6384 9.66456 11.2056C9.66456 10.7728 9.38079 10.4226 9.03029 10.4226H4.99032C4.63961 10.4226 4.35602 10.7728 4.35602 11.2056C4.35605 11.6384 4.63961 11.9886 4.99032 11.9886Z" fill="#F8F8F8"/>
<path d="M4.99032 14.8168H9.03029C9.38096 14.8168 9.66456 14.4666 9.66456 14.0339C9.66456 13.6011 9.38079 13.2509 9.03029 13.2509H4.99032C4.63961 13.2509 4.35602 13.6011 4.35602 14.0339C4.35602 14.4666 4.63961 14.8168 4.99032 14.8168Z" fill="#F8F8F8"/>
<path d="M4.99032 17.6453H9.03029C9.38096 17.6453 9.66456 17.2951 9.66456 16.8623C9.66456 16.4295 9.38079 16.0793 9.03029 16.0793H4.99032C4.63961 16.0793 4.35602 16.4295 4.35602 16.8623C4.35605 17.2951 4.63961 17.6453 4.99032 17.6453Z" fill="#F8F8F8"/>
</svg>
