<svg width="114" height="15" viewBox="0 0 114 15" fill="none" xmlns="http://www.w3.org/2000/svg">
<path d="M0.594 7.664C0.594 6.416 0.864 5.306 1.404 4.334C1.944 3.35 2.694 2.588 3.654 2.048C4.626 1.496 5.724 1.22 6.948 1.22C8.448 1.22 9.732 1.616 10.8 2.408C11.868 3.2 12.582 4.28 12.942 5.648H9.558C9.306 5.12 8.946 4.718 8.478 4.442C8.022 4.166 7.5 4.028 6.912 4.028C5.964 4.028 5.196 4.358 4.608 5.018C4.02 5.678 3.726 6.56 3.726 7.664C3.726 8.768 4.02 9.65 4.608 10.31C5.196 10.97 5.964 11.3 6.912 11.3C7.5 11.3 8.022 11.162 8.478 10.886C8.946 10.61 9.306 10.208 9.558 9.68H12.942C12.582 11.048 11.868 12.128 10.8 12.92C9.732 13.7 8.448 14.09 6.948 14.09C5.724 14.09 4.626 13.82 3.654 13.28C2.694 12.728 1.944 11.966 1.404 10.994C0.864 10.022 0.594 8.912 0.594 7.664ZM19.3989 14.144C18.4149 14.144 17.5269 13.934 16.7349 13.514C15.9549 13.094 15.3369 12.494 14.8809 11.714C14.4369 10.934 14.2149 10.022 14.2149 8.978C14.2149 7.946 14.4429 7.04 14.8989 6.26C15.3549 5.468 15.9789 4.862 16.7709 4.442C17.5629 4.022 18.4509 3.812 19.4349 3.812C20.4189 3.812 21.3069 4.022 22.0989 4.442C22.8909 4.862 23.5149 5.468 23.9709 6.26C24.4269 7.04 24.6549 7.946 24.6549 8.978C24.6549 10.01 24.4209 10.922 23.9529 11.714C23.4969 12.494 22.8669 13.094 22.0629 13.514C21.2709 13.934 20.3829 14.144 19.3989 14.144ZM19.3989 11.48C19.9869 11.48 20.4849 11.264 20.8929 10.832C21.3129 10.4 21.5229 9.782 21.5229 8.978C21.5229 8.174 21.3189 7.556 20.9109 7.124C20.5149 6.692 20.0229 6.476 19.4349 6.476C18.8349 6.476 18.3369 6.692 17.9409 7.124C17.5449 7.544 17.3469 8.162 17.3469 8.978C17.3469 9.782 17.5389 10.4 17.9229 10.832C18.3189 11.264 18.8109 11.48 19.3989 11.48ZM25.6759 8.96C25.6759 7.928 25.8679 7.022 26.2519 6.242C26.6479 5.462 27.1819 4.862 27.8539 4.442C28.5259 4.022 29.2759 3.812 30.1039 3.812C30.7639 3.812 31.3639 3.95 31.9039 4.226C32.4559 4.502 32.8879 4.874 33.1999 5.342V0.68H36.2779V14H33.1999V12.56C32.9119 13.04 32.4979 13.424 31.9579 13.712C31.4299 14 30.8119 14.144 30.1039 14.144C29.2759 14.144 28.5259 13.934 27.8539 13.514C27.1819 13.082 26.6479 12.476 26.2519 11.696C25.8679 10.904 25.6759 9.992 25.6759 8.96ZM33.1999 8.978C33.1999 8.21 32.9839 7.604 32.5519 7.16C32.1319 6.716 31.6159 6.494 31.0039 6.494C30.3919 6.494 29.8699 6.716 29.4379 7.16C29.0179 7.592 28.8079 8.192 28.8079 8.96C28.8079 9.728 29.0179 10.34 29.4379 10.796C29.8699 11.24 30.3919 11.462 31.0039 11.462C31.6159 11.462 32.1319 11.24 32.5519 10.796C32.9839 10.352 33.1999 9.746 33.1999 8.978ZM47.9727 8.816C47.9727 9.104 47.9547 9.404 47.9187 9.716H40.9527C41.0007 10.34 41.1987 10.82 41.5467 11.156C41.9067 11.48 42.3447 11.642 42.8607 11.642C43.6287 11.642 44.1627 11.318 44.4627 10.67H47.7387C47.5707 11.33 47.2647 11.924 46.8207 12.452C46.3887 12.98 45.8427 13.394 45.1827 13.694C44.5227 13.994 43.7847 14.144 42.9687 14.144C41.9847 14.144 41.1087 13.934 40.3407 13.514C39.5727 13.094 38.9727 12.494 38.5407 11.714C38.1087 10.934 37.8927 10.022 37.8927 8.978C37.8927 7.934 38.1027 7.022 38.5227 6.242C38.9547 5.462 39.5547 4.862 40.3227 4.442C41.0907 4.022 41.9727 3.812 42.9687 3.812C43.9407 3.812 44.8047 4.016 45.5607 4.424C46.3167 4.832 46.9047 5.414 47.3247 6.17C47.7567 6.926 47.9727 7.808 47.9727 8.816ZM44.8227 8.006C44.8227 7.478 44.6427 7.058 44.2827 6.746C43.9227 6.434 43.4727 6.278 42.9327 6.278C42.4167 6.278 41.9787 6.428 41.6187 6.728C41.2707 7.028 41.0547 7.454 40.9707 8.006H44.8227ZM57.9829 14.126C57.0589 14.126 56.2309 13.976 55.4989 13.676C54.7669 13.376 54.1789 12.932 53.7349 12.344C53.3029 11.756 53.0749 11.048 53.0509 10.22H56.3269C56.3749 10.688 56.5369 11.048 56.8129 11.3C57.0889 11.54 57.4489 11.66 57.8929 11.66C58.3489 11.66 58.7089 11.558 58.9729 11.354C59.2369 11.138 59.3689 10.844 59.3689 10.472C59.3689 10.16 59.2609 9.902 59.0449 9.698C58.8409 9.494 58.5829 9.326 58.2709 9.194C57.9709 9.062 57.5389 8.912 56.9749 8.744C56.1589 8.492 55.4929 8.24 54.9769 7.988C54.4609 7.736 54.0169 7.364 53.6449 6.872C53.2729 6.38 53.0869 5.738 53.0869 4.946C53.0869 3.77 53.5129 2.852 54.3649 2.192C55.2169 1.52 56.3269 1.184 57.6949 1.184C59.0869 1.184 60.2089 1.52 61.0609 2.192C61.9129 2.852 62.3689 3.776 62.4289 4.964H59.0989C59.0749 4.556 58.9249 4.238 58.6489 4.01C58.3729 3.77 58.0189 3.65 57.5869 3.65C57.2149 3.65 56.9149 3.752 56.6869 3.956C56.4589 4.148 56.3449 4.43 56.3449 4.802C56.3449 5.21 56.5369 5.528 56.9209 5.756C57.3049 5.984 57.9049 6.23 58.7209 6.494C59.5369 6.77 60.1969 7.034 60.7009 7.286C61.2169 7.538 61.6609 7.904 62.0329 8.384C62.4049 8.864 62.5909 9.482 62.5909 10.238C62.5909 10.958 62.4049 11.612 62.0329 12.2C61.6729 12.788 61.1449 13.256 60.4489 13.604C59.7529 13.952 58.9309 14.126 57.9829 14.126ZM63.8731 8.978C63.8731 7.934 64.0831 7.022 64.5031 6.242C64.9351 5.462 65.5291 4.862 66.2851 4.442C67.0531 4.022 67.9291 3.812 68.9131 3.812C70.1731 3.812 71.2231 4.142 72.0631 4.802C72.9151 5.462 73.4731 6.392 73.7371 7.592H70.4611C70.1851 6.824 69.6511 6.44 68.8591 6.44C68.2951 6.44 67.8451 6.662 67.5091 7.106C67.1731 7.538 67.0051 8.162 67.0051 8.978C67.0051 9.794 67.1731 10.424 67.5091 10.868C67.8451 11.3 68.2951 11.516 68.8591 11.516C69.6511 11.516 70.1851 11.132 70.4611 10.364H73.7371C73.4731 11.54 72.9151 12.464 72.0631 13.136C71.2111 13.808 70.1611 14.144 68.9131 14.144C67.9291 14.144 67.0531 13.934 66.2851 13.514C65.5291 13.094 64.9351 12.494 64.5031 11.714C64.0831 10.934 63.8731 10.022 63.8731 8.978ZM81.5576 3.848C82.7096 3.848 83.6336 4.232 84.3296 5C85.0256 5.756 85.3736 6.8 85.3736 8.132V14H82.3136V8.546C82.3136 7.874 82.1396 7.352 81.7916 6.98C81.4436 6.608 80.9756 6.422 80.3876 6.422C79.7996 6.422 79.3316 6.608 78.9836 6.98C78.6356 7.352 78.4616 7.874 78.4616 8.546V14H75.3836V0.68H78.4616V5.306C78.7736 4.862 79.1996 4.508 79.7396 4.244C80.2796 3.98 80.8856 3.848 81.5576 3.848ZM92.0845 14.144C91.1005 14.144 90.2125 13.934 89.4205 13.514C88.6405 13.094 88.0225 12.494 87.5665 11.714C87.1225 10.934 86.9005 10.022 86.9005 8.978C86.9005 7.946 87.1285 7.04 87.5845 6.26C88.0405 5.468 88.6645 4.862 89.4565 4.442C90.2485 4.022 91.1365 3.812 92.1205 3.812C93.1045 3.812 93.9925 4.022 94.7845 4.442C95.5765 4.862 96.2005 5.468 96.6565 6.26C97.1125 7.04 97.3405 7.946 97.3405 8.978C97.3405 10.01 97.1065 10.922 96.6385 11.714C96.1825 12.494 95.5525 13.094 94.7485 13.514C93.9565 13.934 93.0685 14.144 92.0845 14.144ZM92.0845 11.48C92.6725 11.48 93.1705 11.264 93.5785 10.832C93.9985 10.4 94.2085 9.782 94.2085 8.978C94.2085 8.174 94.0045 7.556 93.5965 7.124C93.2005 6.692 92.7085 6.476 92.1205 6.476C91.5205 6.476 91.0225 6.692 90.6265 7.124C90.2305 7.544 90.0325 8.162 90.0325 8.978C90.0325 9.782 90.2245 10.4 90.6085 10.832C91.0045 11.264 91.4965 11.48 92.0845 11.48ZM103.545 14.144C102.561 14.144 101.673 13.934 100.881 13.514C100.101 13.094 99.4834 12.494 99.0274 11.714C98.5834 10.934 98.3614 10.022 98.3614 8.978C98.3614 7.946 98.5894 7.04 99.0454 6.26C99.5014 5.468 100.125 4.862 100.917 4.442C101.709 4.022 102.597 3.812 103.581 3.812C104.565 3.812 105.453 4.022 106.245 4.442C107.037 4.862 107.661 5.468 108.117 6.26C108.573 7.04 108.801 7.946 108.801 8.978C108.801 10.01 108.567 10.922 108.099 11.714C107.643 12.494 107.013 13.094 106.209 13.514C105.417 13.934 104.529 14.144 103.545 14.144ZM103.545 11.48C104.133 11.48 104.631 11.264 105.039 10.832C105.459 10.4 105.669 9.782 105.669 8.978C105.669 8.174 105.465 7.556 105.057 7.124C104.661 6.692 104.169 6.476 103.581 6.476C102.981 6.476 102.483 6.692 102.087 7.124C101.691 7.544 101.493 8.162 101.493 8.978C101.493 9.782 101.685 10.4 102.069 10.832C102.465 11.264 102.957 11.48 103.545 11.48ZM113.512 0.68V14H110.434V0.68H113.512Z" fill="#2878EB"/>
</svg>
