<svg width="177" height="22" viewBox="0 0 177 22" fill="none" xmlns="http://www.w3.org/2000/svg">
<path d="M0.924 11.144C0.924 9.20267 1.344 7.476 2.184 5.964C3.024 4.43333 4.19067 3.248 5.684 2.408C7.196 1.54933 8.904 1.12 10.808 1.12C13.1413 1.12 15.1387 1.736 16.8 2.968C18.4613 4.2 19.572 5.88 20.132 8.008H14.868C14.476 7.18667 13.916 6.56133 13.188 6.132C12.4787 5.70267 11.6667 5.488 10.752 5.488C9.27733 5.488 8.08267 6.00133 7.168 7.028C6.25333 8.05467 5.796 9.42667 5.796 11.144C5.796 12.8613 6.25333 14.2333 7.168 15.26C8.08267 16.2867 9.27733 16.8 10.752 16.8C11.6667 16.8 12.4787 16.5853 13.188 16.156C13.916 15.7267 14.476 15.1013 14.868 14.28H20.132C19.572 16.408 18.4613 18.088 16.8 19.32C15.1387 20.5333 13.1413 21.14 10.808 21.14C8.904 21.14 7.196 20.72 5.684 19.88C4.19067 19.0213 3.024 17.836 2.184 16.324C1.344 14.812 0.924 13.0853 0.924 11.144ZM30.1761 21.224C28.6455 21.224 27.2641 20.8973 26.0321 20.244C24.8188 19.5907 23.8575 18.6573 23.1481 17.444C22.4575 16.2307 22.1121 14.812 22.1121 13.188C22.1121 11.5827 22.4668 10.1733 23.1761 8.96C23.8855 7.728 24.8561 6.78533 26.0881 6.132C27.3201 5.47867 28.7015 5.152 30.2321 5.152C31.7628 5.152 33.1441 5.47867 34.3761 6.132C35.6081 6.78533 36.5788 7.728 37.2881 8.96C37.9975 10.1733 38.3521 11.5827 38.3521 13.188C38.3521 14.7933 37.9881 16.212 37.2601 17.444C36.5508 18.6573 35.5708 19.5907 34.3201 20.244C33.0881 20.8973 31.7068 21.224 30.1761 21.224ZM30.1761 17.08C31.0908 17.08 31.8655 16.744 32.5001 16.072C33.1535 15.4 33.4801 14.4387 33.4801 13.188C33.4801 11.9373 33.1628 10.976 32.5281 10.304C31.9121 9.632 31.1468 9.296 30.2321 9.296C29.2988 9.296 28.5241 9.632 27.9081 10.304C27.2921 10.9573 26.9841 11.9187 26.9841 13.188C26.9841 14.4387 27.2828 15.4 27.8801 16.072C28.4961 16.744 29.2615 17.08 30.1761 17.08ZM39.9403 13.16C39.9403 11.5547 40.2389 10.1453 40.8363 8.932C41.4523 7.71867 42.2829 6.78533 43.3283 6.132C44.3736 5.47867 45.5403 5.152 46.8283 5.152C47.8549 5.152 48.7883 5.36667 49.6283 5.796C50.4869 6.22533 51.1589 6.804 51.6443 7.532V0.28H56.4323V21H51.6443V18.76C51.1963 19.5067 50.5523 20.104 49.7123 20.552C48.8909 21 47.9296 21.224 46.8283 21.224C45.5403 21.224 44.3736 20.8973 43.3283 20.244C42.2829 19.572 41.4523 18.6293 40.8363 17.416C40.2389 16.184 39.9403 14.7653 39.9403 13.16ZM51.6443 13.188C51.6443 11.9933 51.3083 11.0507 50.6363 10.36C49.9829 9.66933 49.1803 9.324 48.2283 9.324C47.2763 9.324 46.4643 9.66933 45.7923 10.36C45.1389 11.032 44.8123 11.9653 44.8123 13.16C44.8123 14.3547 45.1389 15.3067 45.7923 16.016C46.4643 16.7067 47.2763 17.052 48.2283 17.052C49.1803 17.052 49.9829 16.7067 50.6363 16.016C51.3083 15.3253 51.6443 14.3827 51.6443 13.188ZM74.6242 12.936C74.6242 13.384 74.5962 13.8507 74.5402 14.336H63.7042C63.7788 15.3067 64.0868 16.0533 64.6282 16.576C65.1882 17.08 65.8695 17.332 66.6722 17.332C67.8668 17.332 68.6975 16.828 69.1642 15.82H74.2602C73.9988 16.8467 73.5228 17.7707 72.8322 18.592C72.1602 19.4133 71.3108 20.0573 70.2842 20.524C69.2575 20.9907 68.1095 21.224 66.8402 21.224C65.3095 21.224 63.9468 20.8973 62.7522 20.244C61.5575 19.5907 60.6242 18.6573 59.9522 17.444C59.2802 16.2307 58.9442 14.812 58.9442 13.188C58.9442 11.564 59.2708 10.1453 59.9242 8.932C60.5962 7.71867 61.5295 6.78533 62.7242 6.132C63.9188 5.47867 65.2908 5.152 66.8402 5.152C68.3522 5.152 69.6962 5.46933 70.8722 6.104C72.0482 6.73867 72.9628 7.644 73.6162 8.82C74.2882 9.996 74.6242 11.368 74.6242 12.936ZM69.7242 11.676C69.7242 10.8547 69.4442 10.2013 68.8842 9.716C68.3242 9.23067 67.6242 8.988 66.7842 8.988C65.9815 8.988 65.3002 9.22133 64.7402 9.688C64.1988 10.1547 63.8628 10.8173 63.7322 11.676H69.7242ZM90.1957 21.196C88.7583 21.196 87.4703 20.9627 86.3317 20.496C85.193 20.0293 84.2783 19.3387 83.5877 18.424C82.9157 17.5093 82.561 16.408 82.5237 15.12H87.6197C87.6943 15.848 87.9463 16.408 88.3757 16.8C88.805 17.1733 89.365 17.36 90.0557 17.36C90.765 17.36 91.325 17.2013 91.7357 16.884C92.1463 16.548 92.3517 16.0907 92.3517 15.512C92.3517 15.0267 92.1837 14.6253 91.8477 14.308C91.5303 13.9907 91.129 13.7293 90.6437 13.524C90.177 13.3187 89.505 13.0853 88.6277 12.824C87.3583 12.432 86.3223 12.04 85.5197 11.648C84.717 11.256 84.0263 10.6773 83.4477 9.912C82.869 9.14667 82.5797 8.148 82.5797 6.916C82.5797 5.08667 83.2423 3.65867 84.5677 2.632C85.893 1.58667 87.6197 1.064 89.7477 1.064C91.913 1.064 93.6583 1.58667 94.9837 2.632C96.309 3.65867 97.0183 5.096 97.1117 6.944H91.9317C91.8943 6.30933 91.661 5.81467 91.2317 5.46C90.8023 5.08667 90.2517 4.9 89.5797 4.9C89.001 4.9 88.5343 5.05867 88.1797 5.376C87.825 5.67467 87.6477 6.11333 87.6477 6.692C87.6477 7.32667 87.9463 7.82133 88.5437 8.176C89.141 8.53067 90.0743 8.91333 91.3437 9.324C92.613 9.75333 93.6397 10.164 94.4237 10.556C95.2263 10.948 95.917 11.5173 96.4957 12.264C97.0743 13.0107 97.3637 13.972 97.3637 15.148C97.3637 16.268 97.0743 17.2853 96.4957 18.2C95.9357 19.1147 95.1143 19.8427 94.0317 20.384C92.949 20.9253 91.6703 21.196 90.1957 21.196ZM99.3582 13.188C99.3582 11.564 99.6849 10.1453 100.338 8.932C101.01 7.71867 101.934 6.78533 103.11 6.132C104.305 5.47867 105.668 5.152 107.198 5.152C109.158 5.152 110.792 5.66533 112.098 6.692C113.424 7.71867 114.292 9.16533 114.702 11.032H109.606C109.177 9.83733 108.346 9.24 107.114 9.24C106.237 9.24 105.537 9.58533 105.014 10.276C104.492 10.948 104.23 11.9187 104.23 13.188C104.23 14.4573 104.492 15.4373 105.014 16.128C105.537 16.8 106.237 17.136 107.114 17.136C108.346 17.136 109.177 16.5387 109.606 15.344H114.702C114.292 17.1733 113.424 18.6107 112.098 19.656C110.773 20.7013 109.14 21.224 107.198 21.224C105.668 21.224 104.305 20.8973 103.11 20.244C101.934 19.5907 101.01 18.6573 100.338 17.444C99.6849 16.2307 99.3582 14.812 99.3582 13.188ZM126.867 5.208C128.659 5.208 130.097 5.80533 131.179 7C132.262 8.176 132.803 9.8 132.803 11.872V21H128.043V12.516C128.043 11.4707 127.773 10.6587 127.231 10.08C126.69 9.50133 125.962 9.212 125.047 9.212C124.133 9.212 123.405 9.50133 122.863 10.08C122.322 10.6587 122.051 11.4707 122.051 12.516V21H117.263V0.28H122.051V7.476C122.537 6.78533 123.199 6.23467 124.039 5.824C124.879 5.41333 125.822 5.208 126.867 5.208ZM143.243 21.224C141.712 21.224 140.331 20.8973 139.099 20.244C137.885 19.5907 136.924 18.6573 136.215 17.444C135.524 16.2307 135.179 14.812 135.179 13.188C135.179 11.5827 135.533 10.1733 136.243 8.96C136.952 7.728 137.923 6.78533 139.155 6.132C140.387 5.47867 141.768 5.152 143.299 5.152C144.829 5.152 146.211 5.47867 147.443 6.132C148.675 6.78533 149.645 7.728 150.355 8.96C151.064 10.1733 151.419 11.5827 151.419 13.188C151.419 14.7933 151.055 16.212 150.327 17.444C149.617 18.6573 148.637 19.5907 147.387 20.244C146.155 20.8973 144.773 21.224 143.243 21.224ZM143.243 17.08C144.157 17.08 144.932 16.744 145.567 16.072C146.22 15.4 146.547 14.4387 146.547 13.188C146.547 11.9373 146.229 10.976 145.595 10.304C144.979 9.632 144.213 9.296 143.299 9.296C142.365 9.296 141.591 9.632 140.975 10.304C140.359 10.9573 140.051 11.9187 140.051 13.188C140.051 14.4387 140.349 15.4 140.947 16.072C141.563 16.744 142.328 17.08 143.243 17.08ZM161.071 21.224C159.54 21.224 158.159 20.8973 156.927 20.244C155.713 19.5907 154.752 18.6573 154.043 17.444C153.352 16.2307 153.007 14.812 153.007 13.188C153.007 11.5827 153.361 10.1733 154.071 8.96C154.78 7.728 155.751 6.78533 156.983 6.132C158.215 5.47867 159.596 5.152 161.127 5.152C162.657 5.152 164.039 5.47867 165.271 6.132C166.503 6.78533 167.473 7.728 168.183 8.96C168.892 10.1733 169.247 11.5827 169.247 13.188C169.247 14.7933 168.883 16.212 168.155 17.444C167.445 18.6573 166.465 19.5907 165.215 20.244C163.983 20.8973 162.601 21.224 161.071 21.224ZM161.071 17.08C161.985 17.08 162.76 16.744 163.395 16.072C164.048 15.4 164.375 14.4387 164.375 13.188C164.375 11.9373 164.057 10.976 163.423 10.304C162.807 9.632 162.041 9.296 161.127 9.296C160.193 9.296 159.419 9.632 158.803 10.304C158.187 10.9573 157.879 11.9187 157.879 13.188C157.879 14.4387 158.177 15.4 158.775 16.072C159.391 16.744 160.156 17.08 161.071 17.08ZM176.575 0.28V21H171.787V0.28H176.575Z" fill="#2878EB"/>
</svg>
