<svg width="24" height="24" viewBox="0 0 24 24" fill="none" xmlns="http://www.w3.org/2000/svg">
<g clip-path="url(#clip0_25_1762)">
<path d="M19.2356 10.8278L19.7653 10.2981L18.1762 8.70903L15.2653 5.7981L13.6762 4.20903L13.1465 4.73872L12.0871 5.7981L2.74963 15.1356C2.26214 15.6231 1.90589 16.2278 1.70901 16.8887L0.049635 22.5325C-0.0675525 22.9262 0.04026 23.3528 0.335573 23.6434C0.630885 23.934 1.05276 24.0418 1.44651 23.9293L7.08557 22.27C7.74651 22.0731 8.3512 21.7168 8.8387 21.2293L18.1762 11.8918L19.2356 10.8278ZM7.50276 18.7215L7.0762 19.7856C6.8887 19.9309 6.67776 20.0387 6.45276 20.109L2.78714 21.1872L3.86526 17.5262C3.93089 17.2965 4.04339 17.0856 4.1887 16.9028L5.25276 16.4762V17.9762C5.25276 18.3887 5.59026 18.7262 6.00276 18.7262H7.50276V18.7215ZM17.0043 0.876221L16.3293 1.55591L15.2699 2.61528L14.7356 3.14497L16.3246 4.73403L19.2356 7.64497L20.8246 9.23403L21.3543 8.70435L22.4137 7.64497L23.0934 6.96528C24.2653 5.79341 24.2653 3.89497 23.0934 2.7231L21.2512 0.876221C20.0793 -0.295654 18.1809 -0.295654 17.009 0.876221H17.0043ZM14.7824 8.75122L8.03245 15.5012C7.74182 15.7918 7.2637 15.7918 6.97307 15.5012C6.68245 15.2106 6.68245 14.7325 6.97307 14.4418L13.7231 7.69185C14.0137 7.40122 14.4918 7.40122 14.7824 7.69185C15.0731 7.98247 15.0731 8.4606 14.7824 8.75122Z" fill="#F8F8F8"/>
</g>
<defs>
<clipPath id="clip0_25_1762">
<rect width="24" height="24" fill="white" transform="translate(0.00268555)"/>
</clipPath>
</defs>
</svg>
