<svg width="28" height="28" viewBox="0 0 28 28" fill="none" xmlns="http://www.w3.org/2000/svg">
<g clip-path="url(#clip0_25_1766)">
<path d="M0.260498 18.9794C0.890787 19.7773 1.58913 20.5189 2.34766 21.1961C2.34533 21.1296 2.336 21.0666 2.336 21.0001C2.34056 19.816 2.70328 18.661 3.37647 17.6869C4.04967 16.7128 5.00184 15.9652 6.10783 15.5424C6.31125 15.4654 6.4891 15.3331 6.62132 15.1604C6.75353 14.9878 6.83485 14.7816 6.85608 14.5651C6.87731 14.3487 6.83762 14.1306 6.74148 13.9355C6.64534 13.7404 6.49658 13.5761 6.312 13.4611C5.8076 13.1494 5.39166 12.7135 5.10404 12.195C4.81641 11.6766 4.66673 11.0929 4.66933 10.5001C4.66679 9.82036 4.863 9.15474 5.23383 8.58511C5.60466 8.01548 6.13393 7.56669 6.75652 7.29395C7.3791 7.02121 8.06783 6.93643 8.73798 7.05004C9.40812 7.16365 10.0304 7.47069 10.5283 7.93339C11.2577 7.51476 12.057 7.23212 12.8873 7.09922C12.4322 6.46337 11.8537 5.92565 11.1864 5.51808C10.5191 5.11051 9.77654 4.84144 9.00303 4.72691C8.22952 4.61237 7.44087 4.6547 6.68406 4.85139C5.92726 5.04808 5.21779 5.3951 4.59793 5.87176C3.97807 6.34843 3.4605 6.94499 3.07606 7.62591C2.69162 8.30682 2.44817 9.05816 2.36023 9.83514C2.27229 10.6121 2.34165 11.3989 2.56418 12.1485C2.78671 12.8981 3.15785 13.5952 3.6555 14.1984C1.97644 15.3224 0.768371 17.0237 0.260498 18.9794ZM27.7448 18.9794C27.2375 17.0228 26.0294 15.3207 24.3498 14.1961C24.8458 13.5927 25.2155 12.8958 25.4368 12.1468C25.6581 11.3977 25.7266 10.6119 25.6381 9.83584C25.5496 9.05982 25.306 8.30951 24.9217 7.62952C24.5375 6.94953 24.0204 6.35374 23.4013 5.87758C22.7822 5.40141 22.0736 5.05458 21.3178 4.85771C20.562 4.66084 19.7743 4.61795 19.0015 4.73159C18.2288 4.84523 17.4868 5.11308 16.8197 5.51921C16.1525 5.92535 15.5738 6.46147 15.118 7.09572C15.9484 7.22857 16.7477 7.51121 17.477 7.92989C17.8345 7.60113 18.2566 7.35055 18.7163 7.19416C19.1761 7.03778 19.6635 6.97902 20.1473 7.02165C20.631 7.06428 21.1006 7.20736 21.526 7.44174C21.9513 7.67612 22.3231 7.99665 22.6175 8.38285C22.912 8.76905 23.1227 9.21243 23.2361 9.68466C23.3495 10.1569 23.3631 10.6476 23.2761 11.1254C23.1892 11.6032 23.0035 12.0576 22.7309 12.4596C22.4584 12.8615 22.105 13.2022 21.6933 13.4599C21.5087 13.5749 21.36 13.7392 21.2638 13.9343C21.1677 14.1294 21.128 14.3475 21.1492 14.5639C21.1705 14.7804 21.2518 14.9866 21.384 15.1593C21.5162 15.332 21.6941 15.4643 21.8975 15.5412C23.0037 15.9641 23.956 16.7119 24.6292 17.6862C25.3024 18.6606 25.665 19.8158 25.6693 21.0001C25.6693 21.0666 25.66 21.1296 25.6577 21.1949C26.4161 20.5181 27.1145 19.7769 27.7448 18.9794Z" fill="#010101"/>
<path d="M22.1157 23.6646C21.9889 22.4673 21.6009 21.3125 20.979 20.2815C20.3571 19.2506 19.5165 18.3688 18.5165 17.6983C19.3743 16.6572 19.841 15.3489 19.836 13.9999C19.8355 13.0653 19.6103 12.1445 19.1796 11.315C18.7489 10.4855 18.1252 9.7717 17.361 9.23362C16.5968 8.69554 15.7145 8.34896 14.7883 8.22308C13.8622 8.09719 12.9194 8.19568 12.0393 8.51025C11.1592 8.82482 10.3676 9.34627 9.73108 10.0307C9.09458 10.7151 8.63185 11.5424 8.38186 12.443C8.13186 13.3436 8.10193 14.291 8.29457 15.2056C8.48721 16.1202 8.89679 16.975 9.48881 17.6983C8.48883 18.3688 7.64822 19.2506 7.02633 20.2815C6.40443 21.3125 6.0164 22.4673 5.88965 23.6646C6.63025 24.0494 7.39756 24.3804 8.18565 24.6551C8.18332 24.6026 8.16932 24.5536 8.16932 24.4999C8.1742 23.3159 8.53704 22.1611 9.2102 21.1871C9.88335 20.2131 10.8353 19.4654 11.9411 19.0423C12.1449 18.9654 12.323 18.8331 12.4554 18.6604C12.5879 18.4876 12.6693 18.2812 12.6906 18.0645C12.7118 17.8478 12.672 17.6295 12.5756 17.4343C12.4793 17.2391 12.3302 17.0747 12.1453 16.9598C11.6408 16.6486 11.2247 16.2129 10.937 15.6946C10.6494 15.1763 10.4998 14.5927 10.5026 13.9999C10.5026 13.0717 10.8714 12.1814 11.5278 11.5251C12.1842 10.8687 13.0744 10.4999 14.0026 10.4999C14.9309 10.4999 15.8211 10.8687 16.4775 11.5251C17.1339 12.1814 17.5026 13.0717 17.5026 13.9999C17.5055 14.5927 17.3559 15.1763 17.0683 15.6946C16.7806 16.2129 16.3645 16.6486 15.86 16.9598C15.6751 17.0747 15.526 17.2391 15.4297 17.4343C15.3333 17.6295 15.2935 17.8478 15.3147 18.0645C15.336 18.2812 15.4174 18.4876 15.5499 18.6604C15.6823 18.8331 15.8604 18.9654 16.0641 19.0423C17.17 19.4654 18.1219 20.2131 18.7951 21.1871C19.4683 22.1611 19.8311 23.3159 19.836 24.4999C19.836 24.5536 19.822 24.6026 19.8208 24.6551C20.6085 24.3804 21.3754 24.0493 22.1157 23.6646Z" fill="#010101"/>
</g>
<defs>
<clipPath id="clip0_25_1766">
<rect width="28" height="28" fill="white" transform="translate(0.00268555)"/>
</clipPath>
</defs>
</svg>
