<svg width="24" height="24" viewBox="0 0 24 24" fill="none" xmlns="http://www.w3.org/2000/svg">
<g clip-path="url(#clip0_25_1758)">
<path d="M1.84888 5.14293H22.1566M17.0796 5.14293L16.7362 4.21501C16.4033 3.31578 16.2367 2.86617 15.9281 2.53376C15.6554 2.24022 15.3054 2.01301 14.9099 1.87296C14.462 1.71436 13.9358 1.71436 12.8831 1.71436H11.1224C10.0697 1.71436 9.54346 1.71436 9.09556 1.87296C8.70008 2.01301 8.34998 2.24022 8.07736 2.53376C7.76863 2.86617 7.6022 3.31578 7.2693 4.21501L6.9258 5.14293M19.6181 5.14293V16.8001C19.6181 18.7203 19.6181 19.6803 19.2031 20.4138C18.838 21.0589 18.2556 21.5834 17.5391 21.9121C16.7245 22.2858 15.6584 22.2858 13.5258 22.2858H10.4796C8.34714 22.2858 7.28088 22.2858 6.46638 21.9121C5.74991 21.5834 5.16741 21.0589 4.80235 20.4138C4.38734 19.6803 4.38734 18.7203 4.38734 16.8001V5.14293M14.5412 9.71436V17.7144M9.46426 9.71436V17.7144" stroke="#F8F8F8" stroke-width="2.5" stroke-linecap="round" stroke-linejoin="round"/>
</g>
<defs>
<clipPath id="clip0_25_1758">
<rect width="24" height="24" fill="white" transform="translate(0.00268555)"/>
</clipPath>
</defs>
</svg>
